<svg xmlns="http://www.w3.org/2000/svg" height="24" viewBox="0 -960 960 960" width="24"><path d="M684.565-121.478 438.5-369.304q-19.283 7.282-38.946 11.043-19.663 3.761-43.141 3.761-102.87 0-175.141-72.272Q109-499.043 109-601.913q0-36.478 10.837-71.25t29.315-63.772L296.587-589.5l72-72-147.435-147.435q28.283-18 63.533-29.076t71.728-11.076q102.87 0 175.022 72.152 72.152 72.152 72.152 175.022 0 22.283-3.641 42.304-3.642 20.022-11.163 40.022l248.065 246.065Q851-259.37 851-239.5q0 19.87-14.152 34.022l-84 84q-14.152 14.152-34.141 14.152-19.99 0-34.142-14.152Z"/></svg>